# Blender 4.0.2
# www.blender.org
mtllib weird_guy.mtl
o Cube
v -1.000000 2.903975 1.000000
v -1.000000 4.903975 1.000000
v -1.000000 2.903975 -1.000000
v -1.000000 4.903975 -1.000000
v 1.000000 2.903975 1.000000
v 1.000000 4.903975 1.000000
v 1.000000 2.903975 -1.000000
v 1.000000 4.903975 -1.000000
v -0.710658 2.248927 -0.710658
v -0.710658 2.248927 0.710658
v 0.710658 2.248927 -0.710658
v 0.710658 2.248927 0.710658
v -0.373988 5.222589 0.373988
v -0.373988 5.222589 -0.373988
v 0.373988 5.222589 -0.373988
v 0.373988 5.222589 0.373988
v -0.373988 5.585013 0.373988
v -0.373988 5.585013 -0.373988
v 0.373988 5.585013 -0.373988
v 0.373988 5.585013 0.373988
v -0.592994 5.922910 0.592994
v -0.592994 5.922910 -0.592994
v 0.592994 5.922910 -0.592994
v 0.592994 5.922910 0.592994
v -0.026129 6.956640 0.026129
v -0.026129 6.956640 -0.026129
v 0.026129 6.956640 -0.026129
v 0.026129 6.956640 0.026129
v 0.000000 2.903975 -1.000000
v 0.000000 4.903975 -1.000000
v 0.000000 2.903975 1.000000
v 0.000000 4.903975 1.000000
v 0.000000 2.248927 -0.710658
v 0.000000 2.248927 0.710658
v 0.000000 5.222589 -0.373988
v 0.000000 5.222589 0.373988
v 0.000000 5.585013 -0.373988
v 0.000000 5.585013 0.373988
v 0.000000 5.922910 -0.592994
v 0.000000 5.922910 0.592994
v 0.000000 6.956640 -0.026129
v 0.000000 6.956640 0.026129
v 0.710658 -0.036759 0.710658
v 0.710658 -0.036759 -0.710658
v 0.000000 -0.036759 0.710658
v 0.000000 -0.036759 -0.710658
v 1.004396 4.253890 -0.349914
v 1.004396 3.554061 -0.349914
v 1.004396 3.554061 0.349914
v 1.004396 4.253890 0.349914
v 3.917306 4.010236 -0.106261
v 3.917306 3.797715 -0.106261
v 3.917306 3.797715 0.106261
v 3.917306 4.010236 0.106261
v -1.012229 3.123731 -0.780245
v -1.012229 3.123731 0.780245
v -1.012229 4.684220 0.780245
v -1.012229 4.684220 -0.780245
v 1.000000 2.903975 1.000000
v 1.000000 4.903975 1.000000
v 1.000000 2.903975 -1.000000
v 1.000000 4.903975 -1.000000
v -1.000000 2.903975 1.000000
v -1.000000 4.903975 1.000000
v -1.000000 2.903975 -1.000000
v -1.000000 4.903975 -1.000000
v 0.710658 2.248927 -0.710658
v 0.710658 2.248927 0.710658
v -0.710658 2.248927 -0.710658
v -0.710658 2.248927 0.710658
v 0.373988 5.222589 0.373988
v 0.373988 5.222589 -0.373988
v -0.373988 5.222589 -0.373988
v -0.373988 5.222589 0.373988
v 0.373988 5.585013 0.373988
v 0.373988 5.585013 -0.373988
v -0.373988 5.585013 -0.373988
v -0.373988 5.585013 0.373988
v 0.592994 5.922910 0.592994
v 0.592994 5.922910 -0.592994
v -0.592994 5.922910 -0.592994
v -0.592994 5.922910 0.592994
v 0.026129 6.956640 0.026129
v 0.026129 6.956640 -0.026129
v -0.026129 6.956640 -0.026129
v -0.026129 6.956640 0.026129
v -0.710658 -0.036759 0.710658
v -0.710658 -0.036759 -0.710658
v -1.004396 4.253890 -0.349914
v -1.004396 3.554061 -0.349914
v -1.004396 3.554061 0.349914
v -1.004396 4.253890 0.349914
v -3.917306 4.010236 -0.106261
v -3.917306 3.797715 -0.106261
v -3.917306 3.797715 0.106261
v -3.917306 4.010236 0.106261
v 1.012229 3.123731 -0.780245
v 1.012229 3.123731 0.780245
v 1.012229 4.684220 0.780245
v 1.012229 4.684220 -0.780245
vn -0.9985 -0.0000 -0.0556
vn -0.0000 -0.0000 -1.0000
vn 1.0000 0.0068 -0.0000
vn -0.0000 -0.0000 1.0000
vn -0.9147 -0.4040 -0.0000
vn -0.0000 0.8912 0.4536
vn 1.0000 -0.0000 -0.0000
vn 0.9147 -0.4040 -0.0000
vn -0.0000 -0.4040 0.9147
vn -0.0000 -0.4040 -0.9147
vn -0.0000 0.8912 -0.4536
vn 0.4536 0.8912 -0.0000
vn -0.4536 0.8912 -0.0000
vn -0.0000 -0.5439 0.8392
vn -1.0000 -0.0000 -0.0000
vn 0.8768 0.4808 -0.0000
vn -0.0000 -0.5439 -0.8392
vn 0.8392 -0.5439 -0.0000
vn -0.8392 -0.5439 -0.0000
vn -0.0000 1.0000 -0.0000
vn -0.8768 0.4808 -0.0000
vn -0.0000 0.4808 0.8768
vn -0.0000 0.4808 -0.8768
vn -0.0000 -1.0000 -0.0000
vn 0.0834 -0.0000 0.9965
vn 1.0000 -0.0000 -0.0068
vn 1.0000 -0.0000 0.0068
vn 1.0000 -0.0068 -0.0000
vn 0.0834 -0.9965 -0.0000
vn 0.0834 0.9965 -0.0000
vn 0.0834 -0.0000 -0.9965
vn -0.9985 -0.0000 0.0556
vn -0.9985 0.0556 -0.0000
vn -0.9985 -0.0556 -0.0000
vn 0.9985 -0.0000 -0.0556
vn -1.0000 0.0068 -0.0000
vn -0.0834 -0.0000 0.9965
vn -1.0000 -0.0000 -0.0068
vn -1.0000 -0.0000 0.0068
vn -1.0000 -0.0068 -0.0000
vn -0.0834 -0.9965 -0.0000
vn -0.0834 0.9965 -0.0000
vn -0.0834 -0.0000 -0.9965
vn 0.9985 -0.0000 0.0556
vn 0.9985 0.0556 -0.0000
vn 0.9985 -0.0556 -0.0000
vt 0.625000 0.250000
vt 0.375000 0.250000
vt 0.375000 0.375000
vt 0.625000 0.375000
vt 0.625000 0.500000
vt 0.375000 0.500000
vt 0.625000 0.750000
vt 0.375000 0.875000
vt 0.625000 0.875000
vt 0.625000 1.000000
vt 0.375000 1.000000
vt 0.375000 0.000000
vt 0.375000 0.750000
vt 0.625000 0.000000
vt 0.750000 0.500000
vt 0.875000 0.500000
vt 0.875000 0.750000
vt 0.750000 0.750000
vt 0.125000 0.500000
vt 0.250000 0.500000
vt 0.250000 0.750000
vt 0.125000 0.750000
s 0
f 4/1/1 3/2/1 55/2/1 58/1/1
f 29/3/2 30/4/2 8/5/2 7/6/2
f 8/5/3 6/7/3 50/7/3 47/5/3
f 31/8/4 32/9/4 2/10/4 1/11/4
f 1/12/5 3/2/5 9/2/5 10/12/5
f 32/9/6 6/7/6 16/7/6 36/9/6
f 11/6/7 12/13/7 43/13/7 44/6/7
f 7/6/8 5/13/8 12/13/8 11/6/8
f 31/8/9 1/11/9 10/11/9 34/8/9
f 29/3/10 7/6/10 11/6/10 33/3/10
f 16/7/7 15/5/7 19/5/7 20/7/7
f 30/4/11 4/1/11 14/1/11 35/4/11
f 6/7/12 8/5/12 15/5/12 16/7/12
f 4/1/13 2/14/13 13/14/13 14/1/13
f 38/9/14 20/7/14 24/7/14 40/9/14
f 14/1/15 13/14/15 17/14/15 18/1/15
f 36/9/4 16/7/4 20/7/4 38/9/4
f 35/4/2 14/1/2 18/1/2 37/4/2
f 24/7/16 23/5/16 27/5/16 28/7/16
f 37/4/17 18/1/17 22/1/17 39/4/17
f 20/7/18 19/5/18 23/5/18 24/7/18
f 18/1/19 17/14/19 21/14/19 22/1/19
f 41/15/20 26/16/20 25/17/20 42/18/20
f 22/1/21 21/14/21 25/14/21 26/1/21
f 40/9/22 24/7/22 28/7/22 42/9/22
f 39/4/23 22/1/23 26/1/23 41/4/23
f 23/5/23 39/4/23 41/4/23 27/5/23
f 21/10/22 40/9/22 42/9/22 25/10/22
f 27/5/20 41/15/20 42/18/20 28/7/20
f 19/5/17 37/4/17 39/4/17 23/5/17
f 15/5/2 35/4/2 37/4/2 19/5/2
f 13/10/4 36/9/4 38/9/4 17/10/4
f 17/10/14 38/9/14 40/9/14 21/10/14
f 8/5/11 30/4/11 35/4/11 15/5/11
f 3/2/10 29/3/10 33/3/10 9/2/10
f 5/13/9 31/8/9 34/8/9 12/13/9
f 9/19/24 33/20/24 34/21/24 10/22/24
f 2/10/6 32/9/6 36/9/6 13/10/6
f 5/13/4 6/7/4 32/9/4 31/8/4
f 3/2/2 4/1/2 30/4/2 29/3/2
f 46/20/24 44/6/24 43/13/24 45/21/24
f 33/3/2 11/6/2 44/6/2 46/3/2
f 34/21/15 33/20/15 46/20/15 45/21/15
f 12/13/4 34/8/4 45/8/4 43/13/4
f 50/7/25 49/13/25 53/13/25 54/7/25
f 7/6/26 8/5/26 47/5/26 48/6/26
f 6/7/27 5/13/27 49/13/27 50/7/27
f 5/13/28 7/6/28 48/6/28 49/13/28
f 52/6/7 51/5/7 54/7/7 53/13/7
f 49/13/29 48/6/29 52/6/29 53/13/29
f 47/5/30 50/7/30 54/7/30 51/5/30
f 48/6/31 47/5/31 51/5/31 52/6/31
f 56/12/15 57/14/15 58/1/15 55/2/15
f 1/11/32 2/10/32 57/10/32 56/11/32
f 2/14/33 4/1/33 58/1/33 57/14/33
f 3/2/34 1/12/34 56/12/34 55/2/34
f 62/1/35 100/1/35 97/2/35 61/2/35
f 29/3/2 65/6/2 66/5/2 30/4/2
f 66/5/36 89/5/36 92/7/36 64/7/36
f 31/8/4 59/11/4 60/10/4 32/9/4
f 59/12/8 68/12/8 67/2/8 61/2/8
f 32/9/6 36/9/6 74/7/6 64/7/6
f 69/6/15 88/6/15 87/13/15 70/13/15
f 65/6/5 69/6/5 70/13/5 63/13/5
f 31/8/9 34/8/9 68/11/9 59/11/9
f 29/3/10 33/3/10 69/6/10 65/6/10
f 74/7/15 78/7/15 77/5/15 73/5/15
f 30/4/11 35/4/11 72/1/11 62/1/11
f 64/7/13 74/7/13 73/5/13 66/5/13
f 62/1/12 72/1/12 71/14/12 60/14/12
f 38/9/14 40/9/14 82/7/14 78/7/14
f 72/1/7 76/1/7 75/14/7 71/14/7
f 36/9/4 38/9/4 78/7/4 74/7/4
f 35/4/2 37/4/2 76/1/2 72/1/2
f 82/7/21 86/7/21 85/5/21 81/5/21
f 37/4/17 39/4/17 80/1/17 76/1/17
f 78/7/19 82/7/19 81/5/19 77/5/19
f 76/1/18 80/1/18 79/14/18 75/14/18
f 41/15/20 42/18/20 83/17/20 84/16/20
f 80/1/16 84/1/16 83/14/16 79/14/16
f 40/9/22 42/9/22 86/7/22 82/7/22
f 39/4/23 41/4/23 84/1/23 80/1/23
f 81/5/23 85/5/23 41/4/23 39/4/23
f 79/10/22 83/10/22 42/9/22 40/9/22
f 85/5/20 86/7/20 42/18/20 41/15/20
f 77/5/17 81/5/17 39/4/17 37/4/17
f 73/5/2 77/5/2 37/4/2 35/4/2
f 71/10/4 75/10/4 38/9/4 36/9/4
f 75/10/14 79/10/14 40/9/14 38/9/14
f 66/5/11 73/5/11 35/4/11 30/4/11
f 61/2/10 67/2/10 33/3/10 29/3/10
f 63/13/9 70/13/9 34/8/9 31/8/9
f 67/19/24 68/22/24 34/21/24 33/20/24
f 60/10/6 71/10/6 36/9/6 32/9/6
f 63/13/4 31/8/4 32/9/4 64/7/4
f 61/2/2 29/3/2 30/4/2 62/1/2
f 46/20/24 45/21/24 87/13/24 88/6/24
f 33/3/2 46/3/2 88/6/2 69/6/2
f 70/13/4 87/13/4 45/8/4 34/8/4
f 92/7/37 96/7/37 95/13/37 91/13/37
f 65/6/38 90/6/38 89/5/38 66/5/38
f 64/7/39 92/7/39 91/13/39 63/13/39
f 63/13/40 91/13/40 90/6/40 65/6/40
f 94/6/15 95/13/15 96/7/15 93/5/15
f 91/13/41 95/13/41 94/6/41 90/6/41
f 89/5/42 93/5/42 96/7/42 92/7/42
f 90/6/43 94/6/43 93/5/43 89/5/43
f 98/12/7 97/2/7 100/1/7 99/14/7
f 59/11/44 98/11/44 99/10/44 60/10/44
f 60/14/45 99/14/45 100/1/45 62/1/45
f 61/2/46 97/2/46 98/12/46 59/12/46
